<?xml version="1.0" standalone="no"?>
<!DOCTYPE svg PUBLIC "-//W3C//DTD SVG 1.1//EN" "http://www.w3.org/Graphics/SVG/1.1/DTD/svg11.dtd" >
<svg xmlns="http://www.w3.org/2000/svg">
<metadata>Generated by IcoMoon</metadata>
<defs>
<font id="cleanSS" horiz-adv-x="1024">
<font-face units-per-em="1024" ascent="960" descent="-64" />
<missing-glyph horiz-adv-x="1024" />
<glyph unicode="&#x20;" horiz-adv-x="512" d="" />
<glyph unicode="&#xe800;" glyph-name="menu" d="M64 682.592h896.032c35.296 0 63.968 28.736 63.968 64.064s-28.672 64-63.968 64h-896.032c-35.328 0-64-28.64-64-64 0-35.328 28.64-64.064 64-64.064zM960.032 213.312h-896.032c-35.328 0-64-28.64-64-64.064 0-35.328 28.64-63.872 64-63.872h896.032c35.328 0 63.968 28.576 63.968 63.872 0 35.424-28.672 64.064-63.968 64.064zM960.032 511.936h-896.032c-35.328 0-64-28.544-64-63.904 0-35.392 28.64-64.064 64-64.064h896.032c35.328 0 63.968 28.672 63.968 64.064 0 35.36-28.672 63.904-63.968 63.904z" />
<glyph unicode="&#xe801;" glyph-name="th-large" d="M21.344 108.384v226.432c0 20.448 7.456 38.112 22.432 52.992 14.944 15.008 32.64 22.496 53.056 22.496h301.984c20.448 0 38.080-7.488 53.024-22.496 14.944-14.944 22.432-32.64 22.432-52.992v-226.432c0-20.512-7.488-38.176-22.432-53.12s-32.64-22.368-53.024-22.432h-301.984c-20.512 0-38.144 7.488-53.056 22.432-14.976 14.976-22.432 32.608-22.432 53.12zM21.344 561.216v226.464c0 20.48 7.456 38.144 22.432 53.088 14.944 14.912 32.64 22.368 53.056 22.4h301.984c20.448 0 38.080-7.424 53.024-22.4s22.432-32.64 22.432-53.088v-226.464c0-20.448-7.488-38.080-22.432-53.024s-32.64-22.432-53.024-22.432h-301.984c-20.512 0-38.144 7.488-53.056 22.432-14.976 14.912-22.432 32.608-22.432 53.024zM549.728 108.384v226.432c0 20.448 7.488 38.112 22.464 52.992 14.944 15.008 32.64 22.496 53.024 22.496h301.984c20.48 0 38.112-7.488 53.056-22.496 14.944-14.944 22.4-32.64 22.4-52.992v-226.432c0-20.512-7.456-38.176-22.4-53.12s-32.64-22.368-53.056-22.432h-301.984c-20.48 0-38.112 7.488-53.024 22.432-14.976 14.976-22.464 32.608-22.464 53.12zM549.728 561.216v226.464c0 20.48 7.488 38.144 22.464 53.088 14.944 14.912 32.64 22.368 53.024 22.4h301.984c20.48 0 38.112-7.424 53.056-22.4s22.4-32.64 22.4-53.088v-226.464c0-20.448-7.456-38.080-22.4-53.024s-32.64-22.432-53.056-22.432h-301.984c-20.48 0-38.112 7.488-53.024 22.432-14.976 14.912-22.464 32.608-22.464 53.024z" />
<glyph unicode="&#xe802;" glyph-name="th-list" d="M0 100.576v109.792c0 15.264 5.344 28.192 16 38.88 10.656 10.624 23.616 16 38.848 16h182.848c15.232 0 28.16-5.376 38.848-16 10.656-10.688 16-23.616 16-38.88v-109.792c0-15.2-5.344-28.192-16-38.816-10.656-10.688-23.616-16-38.848-16h-182.848c-15.232 0-28.16 5.312-38.848 16-10.656 10.624-16 23.616-16 38.816zM0 393.184v109.664c0 15.264 5.344 28.192 16 38.848s23.616 16 38.848 16h182.848c15.232 0 28.16-5.344 38.848-16 10.656-10.656 16-23.616 16-38.848v-109.664c0-15.264-5.344-28.192-16-38.88s-23.616-16-38.848-16h-182.848c-15.232 0-28.16 5.312-38.848 16s-16 23.648-16 38.88zM0 685.696v109.728c0 15.232 5.344 28.192 16 38.848s23.616 16 38.848 16h182.848c15.232 0 28.16-5.344 38.848-16 10.656-10.656 16-23.616 16-38.848v-109.728c0-15.232-5.344-28.16-16-38.848s-23.616-16-38.848-16h-182.848c-15.232 0-28.16 5.344-38.848 16s-16 23.616-16 38.848zM365.728 100.576v109.792c0 15.264 5.344 28.192 16 38.88 10.656 10.624 23.616 16 38.848 16h548.576c15.232 0 28.16-5.376 38.848-16 10.688-10.688 16-23.616 16-38.88v-109.792c0-15.2-5.312-28.192-16-38.816-10.688-10.688-23.616-16-38.848-16h-548.576c-15.232 0-28.192 5.312-38.848 16-10.656 10.624-16 23.616-16 38.816zM365.728 393.184v109.664c0 15.264 5.344 28.192 16 38.848s23.616 16 38.848 16h548.576c15.232 0 28.16-5.344 38.848-16s16-23.616 16-38.848v-109.664c0-15.264-5.312-28.192-16-38.88s-23.616-16-38.848-16h-548.576c-15.232 0-28.192 5.312-38.848 16s-16 23.648-16 38.88zM365.728 685.696v109.728c0 15.232 5.344 28.192 16 38.848s23.616 16 38.848 16h548.576c15.232 0 28.16-5.344 38.848-16s16-23.616 16-38.848v-109.728c0-15.232-5.312-28.16-16-38.848s-23.616-16-38.848-16h-548.576c-15.232 0-28.192 5.344-38.848 16s-16 23.616-16 38.848z" />
<glyph unicode="&#xe803;" glyph-name="dots-horizontal" d="M895.904 575.936c-70.656 0-127.936-57.28-127.936-127.936s57.28-127.936 127.936-127.936c70.816 0 128.096 57.28 128.096 127.936s-57.28 127.936-128.096 127.936zM128.096 575.936c-70.656 0-128.096-57.28-128.096-127.936s57.44-127.936 128.096-127.936 127.936 57.28 127.936 127.936-57.28 127.936-127.936 127.936zM512.096 575.936c-70.816 0-128.096-57.28-128.096-127.936s57.28-127.936 128.096-127.936c70.656 0 127.936 57.28 127.936 127.936s-57.28 127.936-127.936 127.936z" />
<glyph unicode="&#xe804;" glyph-name="dots-vertical" d="M512.096 704.096c70.656 0 127.968 57.28 127.968 127.936s-57.312 127.968-127.968 127.968c-70.848 0-128.128-57.312-128.128-127.968s57.28-127.936 128.128-127.936zM512.096 191.904c-70.848 0-128.128-57.312-128.128-127.968s57.28-127.936 128.128-127.936c70.656 0 127.968 57.28 127.968 127.936s-57.312 127.968-127.968 127.968zM512.096 575.936c-70.848 0-128.128-57.28-128.128-127.936s57.312-127.968 128.128-127.968c70.656 0 127.968 57.312 127.968 127.968s-57.312 127.936-127.968 127.936z" />
<glyph unicode="&#xe805;" glyph-name="settings" d="M512.032 576c-70.72 0-128.032-57.312-128.032-127.968 0-70.752 57.312-128.032 128.032-128.032 70.688 0 127.968 57.28 127.968 128.032 0 70.656-57.28 127.968-127.968 127.968zM981.28 533.312h-96c-9.728 42.528-27.104 81.92-49.568 117.76l68.48 68.416c16.672 16.64 16.672 43.648 0 60.32l-60.32 60.416c-16.672 16.672-43.648 16.672-60.32 0l-68.128-68.064c-35.872 22.656-75.36 40.192-118.080 50.016v95.136c0 23.584-19.104 42.688-42.688 42.688h-85.344c-23.52 0-42.624-19.104-42.624-42.688v-95.136c-42.784-9.792-82.176-27.328-118.144-50.016l-68.032 68.064c-16.672 16.672-43.648 16.672-60.32 0l-60.416-60.416c-16.672-16.672-16.672-43.68 0-60.32l68.48-68.416c-22.4-35.84-39.84-75.264-49.568-117.76h-96c-23.52 0-42.688-19.136-42.688-42.656v-85.344c0-23.488 19.168-42.656 42.688-42.656h96c9.728-42.464 27.2-81.92 49.568-117.728l-68.48-68.512c-16.672-16.608-16.672-43.68 0-60.352l60.416-60.32c16.672-16.672 43.68-16.672 60.32 0l68.032 68.032c35.968-22.656 75.36-40.256 118.144-50.016v-95.264c0-23.488 19.104-42.624 42.624-42.624h85.344c23.584 0 42.688 19.136 42.688 42.624v95.264c42.72 9.76 82.208 27.328 118.080 50.016l68.128-68.032c16.672-16.672 43.616-16.672 60.32 0l60.32 60.32c16.672 16.672 16.672 43.744 0 60.352l-68.48 68.512c22.464 35.808 39.84 75.264 49.568 117.728h96c23.584 0 42.72 19.168 42.72 42.656v85.344c0 23.52-19.136 42.656-42.72 42.656zM512.032 191.968c-141.408 0-255.968 114.688-255.968 256.064 0 141.344 114.56 255.904 255.968 255.904 141.312 0 255.968-114.592 255.968-255.904 0-141.376-114.656-256.064-255.968-256.064z" />
<glyph unicode="&#xe806;" glyph-name="search" d="M1005.088 46.176l-197.984 197.92c55.84 74.784 89.312 167.232 89.312 267.68 0.032 247.52-200.672 448.224-448.192 448.224s-448.224-200.704-448.224-448.224c0-247.616 200.704-448.224 448.224-448.224 100.48 0 192.896 33.44 267.68 89.248l197.92-197.92c25.184-25.152 66.080-25.152 91.328 0 25.088 25.312 25.088 66.112-0.064 91.296zM448.224 191.552c-176.736 0-320.128 143.328-320.128 320.192 0 176.832 143.392 320.16 320.128 320.16 176.832 0 320.224-143.296 320.224-320.128s-143.392-320.224-320.224-320.224z" />
<glyph unicode="&#xe807;" glyph-name="filter" d="M3.584 931.648c8.256 18.912 22.56 28.352 42.944 28.352h930.912c20.384 0 34.656-9.44 42.944-28.352 8.256-19.872 4.832-36.832-10.176-50.912l-358.656-358.592v-539.616c0-20.352-9.44-34.688-28.32-42.912-6.304-2.432-12.352-3.616-18.176-3.616-13.024 0-23.968 4.64-32.672 13.824l-186.208 186.176c-9.216 9.152-13.792 20.128-13.792 32.672v353.472l-358.592 358.592c-15.040 14.080-18.432 31.040-10.208 50.912v0z" />
<glyph unicode="&#xe808;" glyph-name="mail" d="M959.936 853.28h-895.968c-35.328 0-63.968-28.576-63.968-63.968v-682.624c0-35.328 28.64-63.968 63.968-63.968h895.968c35.328 0 64.064 28.672 64.064 63.968v682.624c0 35.392-28.736 63.968-64.064 63.968zM834.496 725.344l-322.72-323.168-322.816 323.168h645.536zM895.968 170.752h-767.936v493.376l352.32-352.864c8.608-8.672 20.032-12.8 31.424-12.608 11.296-0.256 22.72 3.936 31.392 12.608l352.8 353.28v-493.792z" />
<glyph unicode="&#xe809;" glyph-name="bubble" d="M512 938.784c-282.752 0-512-191.584-512-427.808 0-142.528 83.744-268.416 211.968-346.272-6.4-81.504-43.040-154.432-98.88-207.424 114.784 10.944 218.432 59.968 298.464 134.176 32.48-5.376 66.048-8.32 100.448-8.32 282.72 0 512 191.552 512 427.84 0 236.224-229.28 427.808-512 427.808z" />
<glyph unicode="&#xe80a;" glyph-name="heart" d="M746.752 917.376c-98.816 0-185.632-51.648-234.752-129.44-49.12 77.792-135.936 129.44-234.72 129.44-153.12 0-277.28-124.224-277.28-277.344 0-321.856 512-661.408 512-661.408s512 339.552 512 661.408c0 153.12-124.128 277.344-277.248 277.344z" />
<glyph unicode="&#xe80b;" glyph-name="star" d="M1013.056 535.104c9.44 7.424 13.408 19.392 9.44 30.912-3.616 11.52-13.824 19.040-26.112 19.392l-324 8.256c-11.936 0.352-21.952 7.52-25.952 18.752l-107.872 306.72c-3.968 11.424-14.304 18.784-26.624 18.784-12.128 0-22.464-7.328-26.464-18.752l-108.032-306.72c-3.808-11.232-13.792-18.4-25.728-18.752l-324.16-8.288c-12.32-0.352-22.304-7.904-26.080-19.392-3.808-11.488-0.192-23.456 9.6-30.912l257.568-198.432c9.408-7.264 13.248-18.752 9.792-30.048l-92.256-312.448c-3.456-11.584 0.544-23.552 10.496-30.752 9.984-7.104 22.496-7.168 32.64-0.256l266.656 184.384c9.792 6.784 22.112 6.784 32.096 0l266.656-184.384c9.984-6.912 22.656-6.848 32.48 0.256 10.016 7.2 13.984 19.168 10.496 30.752l-92.288 312.448c-3.392 11.328 0.416 22.848 9.856 30.048l257.792 198.432z" />
<glyph unicode="&#xe80c;" glyph-name="pin" d="M512 960c-200.352 0-362.656-161.088-362.656-362.464 0-43.584 7.968-87.264 21.888-125.952 82.272-275.072 340.768-535.584 340.768-535.584s259.2 261.28 341.12 536.864c13.728 38.368 21.536 81.6 21.536 124.672 0 201.376-162.496 362.464-362.656 362.464zM512 448.032c-82.464 0-149.472 66.848-149.472 149.312s67.008 149.312 149.472 149.312 149.28-66.848 149.28-149.312-66.816-149.312-149.28-149.312z" />
<glyph unicode="&#xe80d;" glyph-name="camera" d="M512.096 511.968c-70.816 0-128.096-57.28-128.096-127.936s57.28-127.936 128.096-127.936c70.656 0 127.904 57.28 127.904 127.936s-57.248 127.936-127.904 127.936zM959.936 725.312h-121.504c-23.776 0-43.904 11.712-55.712 32.288l-60.256 106.048c-11.776 20.576-31.936 32.288-55.712 32.288h-309.504c-23.776 0-43.936-11.712-55.552-32.288l-60.416-106.048c-11.808-20.576-31.936-32.288-55.552-32.288h-121.696c-35.232 0-64.032-28.64-64.032-63.968v-597.248c0-35.328 28.8-64.032 64.032-64.032h895.904c35.36 0 64.064 28.672 64.064 64.032v597.248c0 35.328-28.672 63.968-64.064 63.968zM512.096 128.064c-141.472 0-256.032 114.56-256.032 255.968 0 141.28 114.56 255.936 256.032 255.936 141.28 0 255.872-114.656 255.872-255.936 0-141.408-114.592-255.968-255.872-255.968z" />
<glyph unicode="&#xe80e;" glyph-name="photo" d="M277.408 576c58.848 0 106.592 47.744 106.592 106.656 0 58.848-47.744 106.688-106.592 106.688-59.040 0-106.752-47.84-106.752-106.688 0-58.912 47.712-106.656 106.752-106.656zM960.096 960h-896.032c-35.264 0-64.064-28.704-64.064-63.968v-895.968c0-35.392 28.8-64.064 64.064-64.064h896.032c35.424 0 63.904 28.672 63.904 64.064v895.968c0 35.264-28.48 63.968-63.904 63.968zM938.56 192h-853.152v682.688h853.152v-682.688zM554.656 277.408h298.848l-234.784 383.936-157.984-258.592-98.080 130.56-192-255.904h384z" />
<glyph unicode="&#xe80f;" glyph-name="video" d="M960.032 960h-896.032c-35.264 0-64.096-28.64-64.096-63.968v-896.032c0-35.328 28.832-64 64.064-64h896.032c35.392 0 64.064 28.672 64.064 64v896.032c0.032 35.328-28.64 63.968-64.032 63.968zM469.376 874.688h85.248v-85.248h-85.248v85.248zM298.688 874.688h85.248v-85.248h-85.248v85.248zM213.312 21.344h-85.28v85.344h85.248v-85.344zM213.312 789.44h-85.28v85.248h85.248v-85.248zM383.968 21.344h-85.28v85.344h85.248v-85.344zM554.624 21.344h-85.248v85.344h85.248v-85.344zM725.28 21.344h-85.248v85.344h85.248v-85.344zM712.96 428.128l-334.048-188.48c-8-4.416-17.024-4.512-24.992-0.16-8 4.416-12.512 12.064-12.512 20.8v377.056c0 8.832 4.512 16.512 12.512 20.832 8 4.416 17.024 4.32 24.992-0.096l334.048-188.48c7.808-4.448 12.32-11.968 12.32-20.736s-4.512-16.192-12.32-20.736zM725.28 789.44h-85.248v85.248h85.248v-85.248zM895.968 21.344h-85.248v85.344h85.248v-85.344zM895.968 789.44h-85.248v85.248h85.248v-85.248z" />
<glyph unicode="&#xe810;" glyph-name="music" d="M312.832 820.288v-607.584c-33.088 6.944-71.584 4.32-109.76-9.824-85.856-31.904-116.16-109.568-93.376-173.376 22.72-63.84 89.952-89.664 175.808-57.76 72.896 27.072 120.672 87.104 119.456 143.68 0 0 0 322.208 0 501.952l363.616 83.296v-385.536c-33.12 6.944-71.616 4.32-109.792-9.824-85.92-31.904-116.224-109.568-93.44-173.376 22.784-63.84 89.984-89.696 175.872-57.76 72.96 27.072 120.672 87.104 119.456 143.68v720.096l-547.84-117.664z" />
<glyph unicode="&#xe811;" glyph-name="book" d="M64 661.376h85.408c23.616 0 42.528 19.104 42.528 42.624 0 23.616-18.912 42.688-42.528 42.688h-85.408c-23.616 0-42.72-19.072-42.72-42.688 0-23.52 19.104-42.624 42.72-42.624zM64 405.376h85.408c23.616 0 42.528 19.008 42.528 42.624 0 23.52-18.912 42.688-42.528 42.688h-85.408c-23.616 0-42.72-19.168-42.72-42.688 0-23.616 19.104-42.624 42.72-42.624zM191.936 192c0 23.616-18.912 42.688-42.528 42.688h-85.408c-23.616 0-42.72-19.072-42.72-42.688s19.104-42.688 42.72-42.688h85.408c23.616 0 42.528 19.072 42.528 42.688zM938.656 960h-63.872v-469.312l-128.128 127.968-127.968-127.968v469.312h-447.936c-35.424 0-64.064-28.64-64.064-64v-106.688h42.72c47.072 0.032 85.248-38.176 85.248-85.312s-38.176-85.344-85.248-85.344h-42.72v-85.344h42.72c47.072 0 85.248-38.176 85.248-85.344 0-47.136-38.176-85.312-85.248-85.312h-42.72v-85.376h42.72c47.072 0 85.248-38.176 85.248-85.312s-38.176-85.312-85.248-85.312h-42.72v-106.72c0-35.264 28.64-63.936 64.064-63.936h767.904c35.424 0 64.064 28.672 64.064 63.968v896.032c0 35.36-28.64 64-64.064 64z" />
<glyph unicode="&#xe812;" glyph-name="file" d="M661.376 960v-298.688h298.592l-298.592 298.688zM575.968 704v256h-384c-70.656 0-127.936-57.312-127.936-128.032v-767.936c0-35.328 12.512-65.536 37.504-90.528s55.168-37.504 90.432-37.504h640.064c70.656 0 127.936 57.28 127.936 128.032v511.968h-256.064c-70.656 0-127.936 57.28-127.936 128z" />
<glyph unicode="&#xe813;" glyph-name="cloud" d="M895.168 507.008c-8.704 180.896-157.472 324.992-340.64 324.992-144.608 0-268.064-90.176-317.728-217.376-133.856-19.776-236.8-133.952-236.8-273.28 0-153.12 123.968-277.248 277.088-277.344h512c0.16 0 0.16 0 0.16 0 129.696 0 234.752 105.024 234.752 234.656 0 91.328-52.768 169.632-128.832 208.352z" />
<glyph unicode="&#xe814;" glyph-name="upload" d="M895.2 506.976c-8.672 180.896-157.6 324.96-340.576 324.96-144.608 0-268.032-90.176-317.664-217.344-133.856-19.776-236.96-133.92-236.96-273.216 0-153.088 124.096-277.216 277.216-277.312h191.648v236.928l-52.416-52.512c-17.344-17.44-45.472-17.44-62.848 0-17.184 17.376-17.184 45.568 0 62.944l123.776 124.288c9.376 9.472 22.048 13.44 34.176 12.608 12.16 0.608 24.48-3.296 33.888-12.608l123.552-124.288c17.376-17.376 17.376-45.568 0-62.944-17.344-17.44-45.472-17.44-62.816 0l-52.256 52.512v-236.928h235.2c0.192 0 0.192 0 0.192 0 129.504 0 234.688 105.024 234.688 234.624 0 91.296-52.768 169.6-128.8 208.288z" />
<glyph unicode="&#xe815;" glyph-name="download" d="M895.264 506.976c-8.704 180.896-157.632 324.96-340.608 324.96-144.608 0-268-90.176-317.664-217.344-133.856-19.808-236.96-133.952-236.96-273.248 0-153.088 124.096-277.216 277.216-277.28h232.608c-11.808-0.352-23.616 3.36-32.448 12.32l-123.776 124.192c-17.344 17.376-17.344 45.664 0 63.040 17.344 17.44 45.472 17.44 62.848 0l52.416-52.544v236.96h84.896v-236.96l52.384 52.544c17.376 17.44 45.504 17.44 62.88 0 17.376-17.376 17.376-45.664 0-63.040l-123.584-124.192c-8.864-8.832-20.48-12.512-32.128-12.32h276.032c129.504 0 234.56 104.992 234.56 234.592 0 91.328-52.672 169.6-128.672 208.32z" />
<glyph unicode="&#xe816;" glyph-name="pencil" d="M64.672 193.664l-64.416-257.664 257.568 64.384 32.288 32.256-193.28 193.248-32.16-32.224zM161.248 290.336l193.28-193.28 532.608 532.96-193.184 193.344-532.704-533.024zM983.712 919.968c-53.312 53.376-139.808 53.376-193.184 0l-32.224-32.192 193.184-193.28 32.224 32.192c53.376 53.376 53.376 139.904 0 193.28z" />
<glyph unicode="&#xe817;" glyph-name="post" d="M549.76 348.736l377.184 377.536-136.864 136.928-377.344-377.6 137.024-136.864zM995.328 794.72c37.888 37.824 37.888 99.104 0 136.928-37.76 37.76-99.008 37.76-136.8 0l-22.752-22.816 136.864-136.928 22.688 22.816zM895.872 574.912v-510.848h-767.744v767.712h510.784l127.904 128h-702.656c-35.328 0-64.032-28.736-64.032-64.032v-895.744c0-35.328 28.704-64 64.032-64h895.744c35.328 0 63.968 28.672 63.968 64v703.008l-128-128.096zM344.384 417.248l-45.568-182.624 182.432 45.696 22.816 22.816-136.832 136.928-22.848-22.816z" />
<glyph unicode="&#xe818;" glyph-name="trash" d="M917.28 746.656h-192c0 117.76-95.456 213.344-213.184 213.344-117.888 0-213.344-95.584-213.344-213.344h-192.032c-35.392 0-64.064-28.672-64.064-64 0-35.392 28.672-63.968 64.064-63.968h63.904v-618.624c0-35.424 28.8-64.064 64.064-64.064h554.656c35.232 0 64.064 28.64 64.064 64.064v618.624h63.872c35.392 0 64.064 28.576 64.064 63.968 0 35.328-28.672 64-64.064 64zM383.968 64.032h-85.248v511.968h85.248v-511.968zM512.096 874.656c70.656 0 127.936-57.376 127.936-128.032h-256.064c0 70.688 57.28 128.032 128.128 128.032zM554.624 64.032h-85.248v511.968h85.248v-511.968zM725.28 64.032h-85.248v511.968h85.248v-511.968z" />
<glyph unicode="&#xe819;" glyph-name="share" d="M341.312 362.624c83.328 88.288 205.76 170.656 341.344 170.656h42.72v-170.656l298.624 256-298.624 256.096v-170.688h-42.72c-182.816 0-332.48-172.032-341.344-341.408zM767.904 149.344h-639.968v469.28h227.104c32.672 52.256 77.792 97.312 131.104 128.032h-422.272c-35.232 0-63.872-28.64-63.872-63.968v-597.408c0-35.328 28.64-64 63.872-64h768.096c35.392 0 64.064 28.672 64.064 64v295.648l-128.128-109.728v-121.856z" />
<glyph unicode="&#xe81a;" glyph-name="lock" d="M874.752 576h-106.784v127.936c0 141.408-114.56 256.064-255.872 256.064s-256.096-114.656-256.096-256.064v-127.936h-106.592c-35.392 0-64.032-28.672-64.032-64v-512.032c0-35.328 28.64-63.968 64.032-63.968h725.344c35.264 0 63.872 28.64 63.872 63.968v512.032c0 35.328-28.608 64-63.872 64zM575.968 106.624h-127.936l33.504 133.888c-31.936 12.32-54.848 43.136-54.848 79.424 0 47.2 38.176 85.312 85.408 85.312 47.040 0 85.216-38.112 85.216-85.312 0-36.32-22.752-67.136-54.656-79.424l33.312-133.888zM682.752 576h-341.312v127.936c0 94.272 76.384 170.752 170.656 170.752s170.656-76.48 170.656-170.752v-127.936z" />
<glyph unicode="&#xe81b;" glyph-name="unlock" d="M874.752 576h-533.312v127.936c0 94.272 76.384 170.752 170.656 170.752s170.656-76.512 170.656-170.688h85.216c0 141.312-114.56 256-255.872 256-141.504 0-256.096-114.656-256.096-256.064v-127.936h-106.592c-35.392 0-64.032-28.672-64.032-64v-512.032c0-35.328 28.64-63.968 64.032-63.968h725.344c35.264 0 63.872 28.64 63.872 63.968v512.032c0 35.328-28.608 64-63.872 64zM575.968 106.624h-127.936l33.504 133.888c-32.096 12.32-54.848 43.136-54.848 79.424 0 47.2 38.176 85.312 85.408 85.312 47.040 0 85.216-38.112 85.216-85.312 0-36.32-22.752-67.136-54.656-79.424l33.312-133.888z" />
<glyph unicode="&#xe81c;" glyph-name="time" d="M512.032 938.688c-271.008 0-490.72-219.616-490.72-490.656 0-271.008 219.712-490.72 490.72-490.72 271.040 0 490.656 219.712 490.656 490.72 0 271.040-219.616 490.656-490.656 490.656zM512.032 85.344c-200.352 0-362.656 162.336-362.656 362.688 0 200.288 162.336 362.688 362.656 362.688 200.256 0 362.688-162.4 362.688-362.688 0.032-200.352-162.4-362.688-362.688-362.688zM725.312 512.032h-149.28v149.28c0 35.328-28.672 64.064-64 64.064s-64.032-28.704-64.032-64.064v-213.28c0-35.392 28.736-64.064 64.064-64.064h213.28c35.328 0 64.064 28.672 64.064 64.064-0.032 35.328-28.736 64-64.096 64z" />
<glyph unicode="&#xe81d;" glyph-name="zoom-in" d="M597.632 575.872h-85.376v85.376c0 23.616-19.104 42.72-42.656 42.72h-42.72c-23.552 0-42.656-19.104-42.656-42.72v-85.376h-85.376c-23.616 0-42.72-19.104-42.72-42.72v-42.656c0-23.616 19.104-42.72 42.72-42.72h85.344v-85.376c0-23.52 19.104-42.656 42.656-42.656h42.72c23.552 0 42.656 19.136 42.656 42.656v85.376h85.376c23.616 0 42.72 19.104 42.72 42.72v42.624c0.032 23.616-19.072 42.752-42.688 42.752zM1005.024 46.24l-197.856 197.952c55.84 74.688 89.28 167.2 89.28 267.584 0.032 247.52-200.704 448.224-448.224 448.224s-448.224-200.704-448.224-448.224 200.704-448.128 448.224-448.128c100.48 0 192.896 33.44 267.68 89.28l197.952-197.952c25.184-25.28 66.016-25.28 91.2 0 25.248 25.184 25.248 65.984-0.032 91.264zM448.224 191.616c-176.832 0-320.128 143.392-320.128 320.128 0 176.864 143.296 320.256 320.128 320.256s320.128-143.392 320.128-320.224c0.032-176.736-143.296-320.16-320.128-320.16z" />
<glyph unicode="&#xe81e;" glyph-name="zoom-out" d="M597.632 575.872h-298.88c-23.52 0-42.656-19.104-42.656-42.72v-42.656c0-23.616 19.104-42.72 42.656-42.72h298.848c23.616 0 42.72 19.104 42.72 42.72v42.624c0.032 23.616-19.072 42.752-42.688 42.752zM1005.024 46.24l-197.856 197.952c55.744 74.688 89.28 167.2 89.28 267.584 0.032 247.52-200.704 448.224-448.224 448.224s-448.224-200.704-448.224-448.224 200.704-448.128 448.224-448.128c100.48 0 192.896 33.44 267.68 89.28l197.856-197.952c25.28-25.28 66.080-25.28 91.296 0 25.248 25.184 25.248 65.984-0.032 91.264zM448.224 191.616c-176.832 0-320.224 143.424-320.224 320.16 0 176.832 143.392 320.224 320.224 320.224s320.128-143.392 320.128-320.224c0.032-176.736-143.296-320.16-320.128-320.16z" />
<glyph unicode="&#xe81f;" glyph-name="user" d="M512 277.312c141.696 0 256 188.128 256 381.44 0 180.064-106.88 301.248-256 301.248-149.152 0-256-121.184-256-301.248 0-193.312 114.24-381.44 256-381.44zM759.68 349.376c-62.176-94.176-149.92-157.376-247.68-157.376s-185.504 63.2-247.68 157.376c-153.728-69.344-264.32-189.248-264.32-275.2 0-64.992 61.888-103.712 170.496-121.792 77.504-12.928 168.768-16.384 341.504-16.384s264 3.456 341.504 16.416c108.576 18.048 170.496 56.768 170.496 121.76 0 85.952-110.592 205.856-264.32 275.2z" />
<glyph unicode="&#xe820;" glyph-name="users" horiz-adv-x="1365" d="M802.752 419.296l1.184-0.64c59.232-27.648 113.568-62.4 159.552-101.504 86.24 65.6 145.664 202.912 145.664 344.224 0.032 177.44-106.72 298.624-255.84 298.624-35.776 0-69.12-6.944-99.168-19.968 62.592-68.672 99.168-166.144 99.168-278.656 0-85.952-18.4-169.728-50.56-242.080zM512 277.344c141.664 0 255.936 188.096 255.936 384.032-0.032 177.44-106.816 298.624-255.936 298.624-149.184 0-256.096-121.184-256.096-298.624 0-195.936 114.208-384.032 256.096-384.032zM1109.184 341.344c-25.376-33.504-52.896-62.944-82.624-86.688 51.744-60.576 82.624-126.816 82.624-190.688 0-52.32-21.152-93.568-58.656-124.608 58.496 3.040 103.296 8.384 144.128 18.016 108.672 12.384 170.656 50.368 170.656 106.592 0 91.616-110.432 209.28-256.128 277.376zM767.904 341.344c-70.144-92.608-158.176-154.464-255.936-149.344-97.92-5.12-185.952 56.736-256.064 149.344-145.664-68.096-255.936-185.76-255.936-277.376 0-56.224 61.792-94.208 170.656-106.592 77.408-18.016 168.608-21.376 341.376-21.376s263.936 3.36 341.344 21.376c108.672 12.384 170.688 50.368 170.688 106.592-0.032 91.616-110.496 209.28-256.128 277.376z" />
<glyph unicode="&#xe821;" glyph-name="circle-warning" d="M511.968 938.624c-271.040 0-490.624-219.616-490.624-490.624s219.584-490.624 490.624-490.624c271.008 0 490.688 219.616 490.688 490.624s-219.68 490.624-490.688 490.624zM511.968 170.56c-35.328 0-64 28.8-64 64.064 0 35.392 28.672 64.064 64 64.064s64.064-28.672 64.064-64.064c0-35.264-28.736-64.064-64.064-64.064zM576.032 405.28c0-35.264-28.736-64.064-64.064-64.064s-64 28.8-64 64.064v256.096c0 35.232 28.672 63.872 64 63.872s64.064-28.672 64.064-63.872v-256.096z" />
<glyph unicode="&#xe822;" glyph-name="circle-info" d="M512 938.72c-271.040 0-490.656-219.648-490.656-490.656s219.648-490.752 490.656-490.752c271.008 0 490.688 219.744 490.688 490.752s-219.68 490.656-490.688 490.656zM576.064 234.656c0-35.264-28.64-64.064-64.064-64.064-35.264 0-64.064 28.8-64.064 64.064v256.096c0 35.232 28.8 63.904 64.064 63.904 35.424 0 64.064-28.672 64.064-63.904v-256.096zM512 597.344c-35.264 0-64.064 28.672-64.064 64.064 0 35.232 28.8 63.904 64.064 63.904 35.424 0 64.064-28.672 64.064-63.904 0-35.392-28.64-64.064-64.064-64.064z" />
<glyph unicode="&#xe823;" glyph-name="circle-close" d="M512.032 938.624c-271.008 0-490.688-219.616-490.688-490.624 0-271.040 219.68-490.624 490.688-490.624 270.944 0 490.624 219.584 490.624 490.624 0 271.008-219.68 490.624-490.624 490.624zM685.664 360.512c23.776-23.776 23.776-62.336 0-86.112-23.776-23.936-62.4-23.936-86.176 0l-87.872 87.84-87.84-87.84c-23.776-23.936-62.4-23.936-86.176 0-23.776 23.776-23.776 62.336 0 86.112l87.84 87.84-87.84 87.84c-23.776 23.776-23.776 62.304 0 86.112 23.776 23.936 62.4 23.936 86.176 0l87.84-87.68 87.872 87.68c23.776 23.936 62.4 23.936 86.176 0 23.776-23.808 23.776-62.336 0-86.112l-87.84-87.84 87.84-87.84z" />
<glyph unicode="&#xe824;" glyph-name="circle-checked" d="M512.032 938.624c-271.008 0-490.688-219.616-490.688-490.624 0-271.040 219.68-490.624 490.688-490.624s490.624 219.584 490.624 490.624c0 271.008-219.616 490.624-490.624 490.624zM770.464 534.976l-274.208-260.768c-25.184-24.128-65.888-24.128-90.976 0l-110.784 104.352c-25.152 24.128-25.152 63.2 0 87.328 25.088 24.128 65.824 24.128 90.912 0l65.344-60.736 228.736 217.184c25.056 24.128 65.792 24.128 90.976 0 25.056-24.192 25.056-63.232 0-87.36z" />
<glyph unicode="&#xe825;" glyph-name="enter" d="M554.688 448.16c0.192 11.456-3.968 22.752-12.672 31.424l-212 211.808c-16.832 16.832-44.256 16.832-61.088 0s-16.832-44.288 0-61.12l139.744-139.392h-366.144c-23.424 0-42.528-19.104-42.528-42.72 0-23.424 19.104-42.528 42.528-42.528h366.144l-139.744-139.584c-16.832-16.832-16.832-44.288 0-61.12s44.256-16.832 61.088 0l212 211.84c8.704 8.64 12.864 20.096 12.672 31.392zM959.904 960h-554.688c-35.264 0-63.904-28.672-63.904-64.064v-85.248c0-35.424 28.672-64.064 63.904-64.064 35.392 0 64.064 28.64 64.064 64.064v21.344h426.752v-768.096h-426.752v21.344c0 35.424-28.672 64.096-64.064 64.096-35.264 0-63.904-28.672-63.904-64.096v-85.408c0-35.264 28.672-63.872 63.904-63.872h554.688c35.424 0 64.096 28.64 64.096 63.872v896.064c0 35.392-28.672 64.064-64.096 64.064z" />
<glyph unicode="&#xe826;" glyph-name="exit" d="M618.592 149.376c-35.232 0-64.064-28.672-64.064-64.064v-21.376h-426.56v768.096h426.592v-21.344c0-35.424 28.832-64.064 64.064-64.064 35.424 0 64.064 28.64 64.064 64.064v85.248c-0.032 35.392-28.672 64.064-64.096 64.064h-554.688c-35.264 0-63.904-28.672-63.904-64.064v-896.064c0-35.232 28.64-63.872 63.904-63.872h554.688c35.424 0 64.064 28.64 64.064 63.872v85.44c0 35.392-28.64 64.064-64.064 64.064zM1011.328 479.936l-212 212.16c-16.832 16.832-44.096 16.832-61.12 0-16.832-16.832-16.832-44.288 0-61.088l139.776-139.776h-365.984c-23.616 0-42.72-19.104-42.72-42.72 0-23.584 19.104-42.688 42.72-42.688h366.016l-139.776-139.776c-16.832-16.832-16.832-44.256 0-61.088 17.024-16.832 44.288-16.832 61.12 0l212 212.16c8.672 8.672 12.832 19.968 12.672 31.392 0.16 11.456-4 22.752-12.704 31.424z" />
<glyph unicode="&#xe827;" glyph-name="plus" d="M938.688 512.032h-362.688v362.624c0 35.328-28.672 64.064-63.904 64.064-35.424 0-64.096-28.736-64.096-64.064v-362.624h-362.688c-35.264 0-64.064-28.736-64.064-64.064s28.8-64 64.064-64h362.688v-362.72c0-35.328 28.672-63.968 64.064-63.968 35.232 0 63.904 28.672 63.904 63.968v362.72h362.688c35.392 0 64.064 28.672 64.064 64 0.032 35.328-28.64 64.064-64.032 64.064z" />
<glyph unicode="&#xe828;" glyph-name="minus" d="M938.688 512.032h-853.376c-35.424 0-64.064-28.736-64.064-64.064s28.64-64 64.064-64h853.376c35.392 0 64.064 28.672 64.064 64s-28.672 64.064-64.064 64.064z" />
<glyph unicode="&#xe829;" glyph-name="checked" d="M962.176 770.4c-25.376 25.344-66.336 25.344-91.68 0l-507.84-508.736-209.376 209.92c-25.184 25.344-66.144 25.344-91.52 0-25.184-25.344-25.344-66.336 0-91.68l253.664-254.528c13.024-13.024 30.208-19.296 47.232-18.752 17.024-0.544 34.016 5.728 47.040 18.752l552.48 553.184c25.344 25.344 25.344 66.496 0 91.84z" />
<glyph unicode="&#xe82a;" glyph-name="close" d="M603.392 448.064l274.144 274.112c25.344 25.344 25.344 66.144 0 91.488-25.184 25.184-66.144 25.184-91.328 0l-274.336-274.304-274.080 274.336c-25.184 25.184-66.144 25.184-91.328 0-25.344-25.344-25.344-66.144 0-91.488l274.144-274.112-274.144-274.336c-25.344-25.184-25.344-66.112 0-91.328 25.184-25.376 66.144-25.376 91.328 0l274.144 274.112 274.336-274.112c25.152-25.376 66.112-25.376 91.328 0 25.344 25.184 25.344 66.112 0 91.328l-274.208 274.304z" />
<glyph unicode="&#xe82b;" glyph-name="arrow-left" d="M959.936 511.936h-740.928l273.408 273.344c25.344 25.248 25.344 66.208 0 91.552-25.248 25.28-66.304 25.28-91.552 0l-381.92-381.728c-13.024-12.928-19.296-30.016-18.944-47.040 0 0 0 0 0-0.096-0.352-17.024 5.888-34.112 18.912-47.136l381.952-381.632c25.248-25.28 66.304-25.28 91.552 0 25.344 25.344 25.344 66.304 0 91.552l-273.408 273.248h740.928c35.392 0 64.064 28.704 64.064 63.968 0 35.328-28.672 63.968-64.064 63.968z" />
<glyph unicode="&#xe82c;" glyph-name="arrow-right" d="M1005.152 495.104l-381.984 381.664c-25.28 25.344-66.336 25.344-91.68 0-25.248-25.28-25.248-66.24 0-91.488l273.472-273.344h-740.96c-35.328 0-64-28.64-64-63.904 0-35.328 28.672-64.064 64-64.064h740.992l-273.472-273.248c-25.248-25.248-25.248-66.304 0-91.552 25.344-25.248 66.4-25.248 91.68 0l382.016 381.664c12.928 13.024 19.104 30.144 18.816 47.168 0 0 0 0 0 0.064 0.224 16.992-5.952 34.080-18.88 47.040z" />
<glyph unicode="&#xe82d;" glyph-name="arrow-down" d="M940.704 428.48c-25.248 25.344-66.208 25.344-91.552 0l-273.216-273.376v740.864c0 35.392-28.64 64.032-63.968 64.032-35.232 0-63.968-28.64-63.968-64.032v-740.864l-273.216 273.376c-25.28 25.344-66.304 25.344-91.584 0-25.248-25.344-25.248-66.304 0-91.648l381.632-381.888c13.024-13.024 30.112-19.104 47.136-18.944h0.096c16.992-0.16 34.080 5.92 47.040 18.944l381.632 381.888c25.312 25.312 25.312 66.304-0.032 91.648z" />
<glyph unicode="&#xe82e;" glyph-name="arrow-up" d="M940.8 559.168l-381.696 381.888c-12.864 13.024-30.016 19.264-47.040 18.944h-0.192c-16.992 0.352-34.016-5.92-46.848-18.912l-381.792-381.92c-25.248-25.344-25.248-66.304 0-91.648 25.344-25.344 66.304-25.344 91.552 0l273.248 273.568v-741.024c0-35.264 28.64-64.064 63.872-64.064 35.424 0 64.032 28.8 64.032 64.064v741.024l273.408-273.568c25.152-25.344 66.112-25.344 91.456 0 25.216 25.344 25.216 66.304 0 91.648z" />
<glyph unicode="&#xe82f;" glyph-name="chevron-left" d="M411.232 447.968l337.504 337.344c25.344 25.28 25.344 66.24 0 91.584-25.28 25.28-66.336 25.28-91.68 0l-381.952-381.792c-13.024-12.928-19.2-30.112-18.816-47.136-0.352-17.024 5.824-34.112 18.816-47.136l381.984-381.728c25.344-25.28 66.4-25.28 91.68 0 25.344 25.344 25.344 66.304 0 91.552l-337.536 337.312z" />
<glyph unicode="&#xe830;" glyph-name="chevron-right" d="M749.28 495.104l-382.656 381.728c-25.344 25.344-66.336 25.344-91.68 0-25.344-25.248-25.344-66.24 0-91.488l337.856-337.28-337.856-337.376c-25.344-25.248-25.344-66.304 0-91.616 25.344-25.248 66.336-25.248 91.68 0l382.656 381.76c12.864 13.024 19.136 30.144 18.752 47.232 0.384 16.928-5.888 34.112-18.752 47.040z" />
<glyph unicode="&#xe831;" glyph-name="chevron-down" d="M940.896 685.056c-25.376 25.344-66.336 25.344-91.584 0l-337.28-337.888-337.28 337.888c-25.344 25.344-66.304 25.344-91.68 0-25.248-25.344-25.248-66.304 0-91.68l381.824-382.496c13.024-13.024 30.016-19.296 47.136-18.944 16.928-0.352 34.112 5.92 47.168 18.944l381.728 382.496c25.216 25.344 25.216 66.336-0.032 91.68z" />
<glyph unicode="&#xe832;" glyph-name="chevron-up" d="M940.896 302.816l-381.728 381.984c-12.992 13.024-30.112 19.264-47.136 18.912-17.024 0.352-34.112-5.92-47.168-18.912l-381.696-381.984c-25.344-25.344-25.344-66.304 0-91.68 25.28-25.152 66.24-25.152 91.584 0l337.28 337.728 337.28-337.728c25.248-25.152 66.304-25.152 91.584 0 25.248 25.376 25.248 66.336 0 91.68z" />
<glyph unicode="&#xe833;" glyph-name="jump-left" d="M512 576h-85.344v256l-426.656-384.032 426.656-383.968v256h85.344c203.456 0 386.912-123.616 512-256-13.216 253.984-237.792 512-512 512z" />
<glyph unicode="&#xe834;" glyph-name="jump-right" d="M1023.968 447.968l-426.688 384.032v-256h-85.248c-274.304 0-498.816-258.016-512-512 124.992 132.384 308.544 256 512 256h85.248v-256l426.688 383.968z" />
<glyph unicode="&#xe835;" glyph-name="jump-down" d="M639.936 362.688v85.408c0 274.080-257.952 498.56-511.936 511.904 132.448-125.152 256.032-308.48 256.032-511.904v-85.408h-256.032l384-426.688 384 426.688h-256.064z" />
<glyph unicode="&#xe836;" glyph-name="jump-up" d="M512 960l-384-426.688h256.032v-85.216c0.032-203.616-123.552-386.944-256.032-512.096 254.048 13.376 512 237.824 512 512.096v85.216h256l-384 426.688z" />
<glyph unicode="&#xe837;" glyph-name="play" d="M930.944 497.824l-779.232 453.984c-18.56 10.752-39.648 10.912-58.304 0.32-18.56-10.592-29.152-28.8-29.152-50.144v-908c0-21.184 10.592-39.392 29.152-50.144 18.656-10.592 39.744-10.4 58.304 0.352l779.232 454.016c18.4 10.592 28.8 28.64 28.8 49.824s-10.4 39.2-28.8 49.792z" />
<glyph unicode="&#xe838;" glyph-name="pause" d="M320 960h-127.968c-35.392 0-64.064-28.672-64.064-64.064v-896.064c0-35.232 28.672-63.872 64.064-63.872h127.968c35.328 0 63.968 28.64 63.968 63.872v896.064c0 35.392-28.64 64.064-63.968 64.064zM831.968 960h-127.936c-35.328 0-63.968-28.672-63.968-64.064v-896.064c0-35.264 28.64-63.872 63.968-63.872h127.936c35.328 0 64.064 28.64 64.064 63.872v896.064c0 35.392-28.704 64.064-64.064 64.064z" />
<glyph unicode="&#xe839;" glyph-name="backward" d="M986.080 741.792c-10.688 6.24-22.752 6.24-33.344-0.16l-419.328-248.96v219.968c0 12.512-6.016 23.072-16.672 29.152-10.656 6.24-22.72 6.24-33.312-0.16l-445.76-264.576c-10.496-6.24-16.416-16.672-16.416-28.992s5.92-22.912 16.416-29.152l445.76-264.576c10.592-6.24 22.656-6.432 33.312-0.192 10.688 6.24 16.672 16.832 16.672 29.152v220l419.328-248.96c10.592-6.24 22.656-6.432 33.344-0.192 10.656 6.24 16.672 16.832 16.672 29.152v529.344c0 12.512-6.016 23.072-16.672 29.152z" />
<glyph unicode="&#xe83a;" glyph-name="forward" d="M986.4 477.088l-445.792 264.896c-10.4 6.24-22.56 6.432-33.312 0.16-10.592-6.24-16.672-16.832-16.672-29.344v-219.936l-419.264 249.12c-10.592 6.24-22.656 6.432-33.344 0.16-10.656-6.24-16.736-16.832-16.736-29.344v-529.632c0-12.512 6.080-23.104 16.736-29.344 10.688-6.24 22.752-6.048 33.344 0.192l419.232 249.28v-220.128c0-12.512 6.080-23.104 16.672-29.344 10.752-6.24 22.912-6.048 33.312 0.192l445.824 264.896c10.4 6.24 16.32 16.672 16.32 29.152 0 12.352-5.92 22.752-16.32 29.024z" />
<glyph unicode="&#xe83b;" glyph-name="previous" d="M277.216 746.496c-35.328 0-64.064-28.64-64.064-63.904v-469.376c0-35.264 28.704-63.872 64.064-63.872 35.328 0 63.968 28.64 63.968 63.872v469.408c0 35.232-28.64 63.872-63.968 63.872zM794.176 741.984c-10.784 6.24-22.944 6.24-33.344-0.16l-419.392-248.96v-89.408l419.392-248.928c10.4-6.24 22.56-6.4 33.344-0.16 10.4 6.24 16.672 16.832 16.672 29.152v529.28c0 12.512-6.24 23.104-16.672 29.184z" />
<glyph unicode="&#xe83c;" glyph-name="next" d="M229.888 741.984c-10.752-6.080-16.672-16.672-16.672-29.184v-529.28c0-12.32 5.888-22.912 16.672-29.152s22.592-6.080 33.344 0.16l419.104 248.928v89.408l-419.104 248.96c-10.752 6.4-22.56 6.4-33.344 0.16zM746.88 746.496c-35.424 0-64.256-28.64-64.256-63.904v-469.376c0-35.264 28.8-63.872 64.256-63.872 35.072 0 63.872 28.64 63.872 63.872v469.408c0 35.232-28.8 63.872-63.872 63.872z" />
<glyph unicode="&#xe83d;" glyph-name="repeat" d="M128 512c0 70.656 57.28 127.936 127.936 127.936h554.816v-127.936l213.216 192-213.216 192.032v-128.128h-682.752c-70.656 0-127.968-57.312-127.968-127.968v-328.48l127.968 115.104v85.44zM896.192 383.84c0-70.656-57.312-127.936-128.128-127.936h-554.816v127.936l-213.216-192.032 213.216-191.84v127.968h682.944c70.464 0 127.776 57.28 127.776 127.968v328.672l-127.776-115.296v-85.44z" />
<glyph unicode="&#xe83e;" glyph-name="shuffle" d="M751.264 639.936h59.552v-127.936l213.184 192-213.184 192.032v-128.128h-144.96c-44.096 0-81.984-20.16-106.432-56.96l-265.28-398.080c-24.672-36.64-62.336-56.928-106.624-56.928h-123.456c-35.392-0.032-64.064-28.672-64.064-64.128 0-35.232 28.672-63.872 64.064-63.872h208.864c44.096 0 81.952 20.128 106.432 56.928l265.44 398.112c24.512 36.832 62.176 56.96 106.464 56.96zM64.064 639.936h123.424c44.288 0 81.984-20.128 106.624-56.928l32.96-49.664 85.44 127.968-33.152 49.632c-24.512 36.8-62.336 56.96-106.432 56.96h-208.864c-35.392 0-64.064-28.64-64.064-63.904 0-35.392 28.672-64.064 64.064-64.064zM810.816 255.904h-59.552c-44.288 0-81.952 20.32-106.432 56.928l-33.152 49.856-85.408-128.16 33.152-49.664c24.48-36.8 62.336-56.928 106.432-56.928h144.96v-127.968l213.184 191.84-213.184 192.032v-127.936z" />
<glyph unicode="&#xe83f;" glyph-name="reload" d="M959.808 448c-55.808 0-63.168-48.992-63.168-48.992-23.968-188.832-185.984-335.008-382.336-335.008-106.656 0-203.008 43.008-272.8 112.512l144.16 143.488h-385.664v-384l150.496 150.016c93.152-92.672 221.664-150.016 363.808-150.016 257.184 0 470.336 188.192 508.192 434.016 0.832 4.48 1.504 9.184 1.504 14.176 0 35.136-28.832 63.808-64.192 63.808zM873.312 810.176c-92.992 92.512-221.504 149.824-363.648 149.824-257.152 0-470.336-188.16-508.16-433.824-0.992-4.48-1.504-9.184-1.504-14.176 0-35.328 28.8-64 64.16-64 55.84 0 63.168 48.992 63.168 48.992 24 188.992 185.984 335.008 382.336 335.008 106.496 0 203.008-43.008 272.832-112.512l-144.192-143.328h385.696v383.84l-150.688-149.824z" />
<glyph unicode="&#xe840;" glyph-name="undo" d="M512 960c-141.344 0-268.768-57.472-361.312-150.144l-150.688 150.144v-383.872h385.632l-144.32 143.584c69.28 69.28 164.768 112.352 270.688 112.352 211.968 0 384.032-171.904 384.032-384.064 0-211.968-172.064-384.032-384.032-384.032-153.312 0-285.248 90.112-346.72 219.808 0 0-10.784 36.288-58.688 36.288-35.392 0-64.064-28.672-64.064-64.064 0-12.16 4.352-22.944 10.24-32.672 83.328-169.76 257.152-287.328 459.232-287.328 282.656 0 512 229.184 512 512 0 282.848-229.344 512-512 512z" />
<glyph unicode="&#xe841;" glyph-name="redo" d="M873.248 809.856c-92.672 92.672-219.872 150.144-361.216 150.144-282.816 0-512-229.152-512-512 0-282.816 229.184-512 512-512 201.856 0 375.808 117.568 459.168 287.328 5.92 9.728 10.048 20.512 10.048 32.672 0 35.392-28.48 64.064-63.904 64.064-47.904 0-58.656-36.288-58.656-36.288-61.472-129.696-193.504-219.808-346.656-219.808-212.16 0-384.032 172.064-384.032 384.032 0 212.16 171.872 384.064 384.032 384.064 105.76 0 201.152-43.072 270.592-112.352l-144.192-143.584h385.536v383.872l-150.72-150.144z" />
<glyph unicode="&#xe842;" glyph-name="volume-off" horiz-adv-x="1450" d="M767.968 957.92c-31.904-4.704-60.832-18.912-82.848-40.48h-2.464l-256-256.064h-298.688c-70.656 0.032-127.968-57.28-127.968-127.936v-170.656c0-70.816 57.312-128.096 127.968-128.096h298.688l256-255.936h2.464c22.016-21.536 50.976-35.936 82.848-40.608v-2.144h42.72v1024h-42.72v-2.080zM1255.328 448.16l182.432 182.496c16.8 16.864 16.8 44.096 0 60.96-16.704 16.672-44.032 16.672-60.896 0l-182.368-182.464-182.432 182.464c-16.736 16.672-44 16.672-60.736 0-16.832-16.864-16.832-44.096 0-60.96l182.336-182.496-182.336-182.272c-16.832-16.8-16.832-44.128 0-60.992 16.736-16.8 44-16.8 60.736 0l182.432 182.496 182.368-182.496c16.864-16.8 44.192-16.8 60.896 0 16.8 16.864 16.8 44.192 0 60.992l-182.432 182.272z" />
<glyph unicode="&#xe843;" glyph-name="volume" d="M874.72 960v-2.016c-32.064-4.704-60.864-19.008-83.008-40.544h-2.368l-256.096-256.064h-298.56c-70.656 0-128.032-57.312-128.032-127.904v-170.72c0-70.816 57.376-128.128 128.032-128.128h298.624l256.096-255.872h2.368c21.952-21.632 50.944-35.936 83.008-40.672v-2.080h42.56v1024h-42.624z" />
<glyph unicode="&#xe844;" glyph-name="volume-min" horiz-adv-x="1110" d="M768.16 957.984c-32.064-4.704-60.864-18.912-83.008-40.48h-2.368l-256.032-256.128h-298.752c-70.688 0-128-57.312-128-128v-170.656c0-70.816 57.312-128.096 128-128.096h298.752l256.032-255.968h2.368c22.112-21.536 50.944-36.128 83.008-40.608v-2.048h42.688v1024h-42.688v-2.016zM987.488 709.472l-60.672-60.8c59.264-46.848 97.344-119.328 97.344-200.8 0-81.248-38.144-153.824-97.344-200.768l60.672-60.384c74.656 62.496 122.080 156.288 122.080 261.152 0 105.12-47.424 198.88-122.080 261.6z" />
<glyph unicode="&#xe845;" glyph-name="volume-mid" horiz-adv-x="1280" d="M768.128 957.92c-32.032-4.704-60.864-18.912-82.976-40.48h-2.368l-256-256.064h-298.688c-70.784 0-128.096-57.28-128.096-127.936v-170.688c0-70.816 57.312-128.128 128.032-128.128h298.688l256-255.872h2.368c22.112-21.664 50.944-35.936 82.944-40.672v-2.080h42.624v1024h-42.624v-2.080h0.096zM1108.064 830.144l-60.384-60.224c89.952-78.336 147.040-193.28 147.040-321.92 0-128.448-57.088-243.616-147.040-321.696l60.384-60.48c105.344 93.728 172 230.080 172 382.144 0 152.128-66.656 288.416-172 382.176zM987.424 709.472l-60.736-60.768c59.328-46.88 97.344-119.328 97.344-200.704 0-81.44-38.048-153.856-97.344-200.672l60.736-60.64c74.528 62.496 121.984 156.256 121.984 261.312s-47.456 198.784-121.984 261.472z" />
<glyph unicode="&#xe846;" glyph-name="volume-max" horiz-adv-x="1451" d="M768.16 957.92c-32.032-4.704-60.96-18.912-82.976-40.48h-2.368l-256.096-256.096h-298.656c-70.752 0.032-128.064-57.28-128.064-127.936v-170.656c0-70.816 57.312-128.096 128.064-128.096h298.592l256.096-255.936h2.368c22.016-21.6 50.944-35.936 82.976-40.608v-2.112h42.624v1024h-42.624v-2.080h0.064zM987.456 709.472l-60.736-60.768c59.328-46.88 97.472-119.328 97.472-200.704 0-81.44-38.176-153.888-97.472-200.672l60.736-60.672c74.528 62.496 122.048 156.256 122.048 261.344 0.032 105.056-47.52 198.784-122.048 261.472zM1108.128 830.144l-60.288-60.224c89.952-78.336 147.040-193.28 147.040-321.92 0-128.48-57.088-243.616-147.040-321.728l60.288-60.48c105.344 93.728 172.096 230.080 172.096 382.176 0 152.128-66.752 288.448-172.096 382.176zM1228.768 950.784l-60.256-60.192c120.736-109.376 197.056-266.88 197.056-442.592s-76.32-333.216-197.056-442.368l60.288-60.48c136.256 124.832 222.208 303.648 222.208 502.848 0 199.296-85.984 377.984-222.24 502.784z" />
<glyph unicode="&#xe847;" glyph-name="resize-minus" d="M834.56 679.104l170.528 170.016c25.152 24.992 25.152 65.6 0 90.752-25.152 24.992-65.92 24.992-91.072 0l-170.72-170.208-146.080 145.056v-381.504h384.288l-146.944 145.888zM188.8 216.416l-170.016-170.56c-24.992-24.96-24.992-65.76 0-90.912 25.152-25.152 65.76-25.152 90.72 0l170.176 170.72 145.568-145.376v382.368h-382.88l146.432-146.24zM110.912 941.056c-24.992 25.152-65.76 25.152-90.72 0-25.152-25.152-25.152-65.92 0-91.072l169.856-170.56-146.432-146.24h383.072v382.72l-145.6-145.568-170.176 170.72zM833.152 216.928l146.976 145.728h-384.32v-381.344l146.080 145.056 170.72-170.208c25.152-24.96 65.952-24.96 91.104 0 25.152 25.152 25.152 65.76 0 90.752l-170.56 170.016z" />
<glyph unicode="&#xe848;" glyph-name="resize-plus" d="M316.96 344.032l-170.656-170.656-146.304 145.472v-382.752h384.672l-147.040 146.336 170.464 170.464c25.184 25.152 25.184 65.952 0 91.136-25.152 25.152-65.952 25.152-91.136 0zM237.632 813.6l147.040 146.304h-384.672v-382.944l146.336 145.664 170.656-170.816c25.184-24.992 65.984-24.992 91.136 0 25.184 25.344 25.184 66.112 0 91.328l-170.496 170.464zM638.272 959.904l147.36-146.848-170.976-170.976c-25.376-25.344-25.376-66.144 0-91.488 25.152-25.152 66.112-25.152 91.328 0l171.328 171.328 146.688-145.984v383.968h-385.728zM706.016 345.408c-25.184 25.184-66.144 25.184-91.328 0-25.376-25.344-25.376-66.304 0-91.456l170.976-170.976-147.36-146.88h385.696v383.968l-146.688-145.984-171.296 171.328z" />
<glyph unicode="&#xe849;" glyph-name="shrink" d="M455.872 392.352c-7.616 7.968-18.56 13.184-30.528 13.184l-296.608-0.192c-23.392 0-42.464-18.176-42.464-41.792 0-23.552 19.072-41.76 42.464-41.76l189.664-0.864-303.904-306.496c-17.856-18.016-17.856-46.976-0.16-64.992 17.856-17.888 46.816-17.888 64.672 0.16l305.28 304.096 1.376-189.664c0-23.584 18.208-42.656 41.6-42.656s41.6 19.072 41.6 42.656l0.16 297.632c0 11.968-5.024 22.912-12.992 30.688h-0.16zM1009.568 946.56c-17.856 17.856-46.816 17.856-64.672 0l-305.12-304.224-1.568 189.664c0 23.552-18.016 42.656-41.6 42.656-23.392 0-41.6-19.072-41.6-42.656l-0.192-297.472c0-12.128 5.024-23.072 13.184-30.688v-0.16c7.776-7.968 18.528-12.992 30.496-12.992h296.64c23.552 0 42.464 18.368 42.624 41.792 0 23.584-19.072 41.792-42.464 41.792l-189.824 0.864 304.064 306.656c17.792 17.792 17.792 46.752 0.032 64.768z" />
<glyph unicode="&#xe84a;" glyph-name="enlarge" d="M391.584 391.872l-306.368-303.392-1.568 189.28c0.16 23.392-18.016 42.496-41.632 42.496s-41.824-19.104-41.824-42.688l-0.16-296.8c0-12.128 5.216-22.912 13.184-30.528v-0.16c7.808-8 18.72-13.024 30.688-13.024h297.664c23.584 0 42.656 18.208 42.656 41.824 0 23.424-19.072 41.632-42.656 41.632l-190.304 0.864 304.96 305.856c18.016 17.888 18.016 46.848 0.16 64.672-17.984 17.856-46.944 17.856-64.8-0.032zM1010.752 945.792c-7.616 8.16-18.368 13.184-30.496 13.184l-296.64-0.192c-23.616 0-42.688-18.176-42.688-41.792 0-23.424 19.072-41.824 42.304-41.824l190.112-0.672-304.32-306.88c-17.888-18.048-17.888-47.040 0-64.864 17.824-18.048 46.816-17.888 64.576 0l305.312 304.448 1.76-189.984c0-23.584 18.048-42.656 41.632-42.656 23.264 0 41.632 19.264 41.632 42.656v297.888c0 11.968-4.8 22.88-13.184 30.688z" />
<glyph unicode="&#xe84b;" glyph-name="align-left" d="M64 512h768c35.328 0 64.064 28.64 64.064 64.064 0 35.232-28.704 63.872-64.064 63.872h-768c-35.328 0-64-28.672-64-63.872 0-35.424 28.64-64.064 64-64.064zM64 768.064h896.032c35.296 0 63.968 28.64 63.968 63.904 0 35.392-28.672 64.064-63.968 64.064h-896.032c-35.328 0-64-28.672-64-64.064 0-35.264 28.64-63.904 64-63.904zM960.032 384.032h-896.032c-35.328 0-64-28.672-64-64.064 0-35.424 28.64-63.904 64-63.904h896.032c35.328 0 63.968 28.48 63.968 63.904 0 35.392-28.672 64.064-63.968 64.064zM704 127.936h-640c-35.328 0-64-28.672-64-63.904 0-35.392 28.64-64.064 64-64.064h640c35.328 0 64 28.672 64 64.064 0 35.264-28.672 63.904-64 63.904z" />
<glyph unicode="&#xe84c;" glyph-name="align-center" d="M192 639.904c-35.328 0-63.968-28.64-63.968-63.872 0-35.392 28.64-64.064 63.968-64.064h640c35.328 0 63.968 28.672 63.968 64.064 0 35.264-28.672 63.872-63.968 63.872h-640zM64.032 768.032h896c35.296 0 63.968 28.64 63.968 63.872 0 35.424-28.672 64.064-63.968 64.064h-896c-35.328 0-64.032-28.64-64.032-64.064 0-35.232 28.704-63.872 64.032-63.872zM704.032 127.968h-384c-35.328 0-63.968-28.672-63.968-63.904 0-35.392 28.64-64.032 63.968-64.032h384c35.328 0 63.968 28.64 63.968 64.032 0 35.264-28.64 63.904-63.968 63.904zM960.032 384.032h-896c-35.328 0-64.032-28.672-64.032-64.064 0-35.424 28.704-63.904 64.032-63.904h896c35.328 0 63.968 28.48 63.968 63.904 0 35.392-28.672 64.064-63.968 64.064z" />
<glyph unicode="&#xe84d;" glyph-name="align-right" d="M959.936 127.968h-639.904c-35.328 0-64.064-28.672-64.064-63.904 0-35.392 28.736-64.032 64.064-64.032h639.904c35.392 0 64.064 28.64 64.064 64.032 0 35.264-28.672 63.904-64.064 63.904zM64.032 768.032h895.904c35.392 0 64.064 28.64 64.064 63.872 0 35.424-28.672 64.064-64.064 64.064h-895.904c-35.392 0-64.032-28.64-64.032-64.064 0-35.232 28.64-63.872 64.032-63.872zM959.936 384.032h-895.904c-35.392 0-64.032-28.672-64.032-64.064 0-35.424 28.64-63.904 64.032-63.904h895.904c35.392 0 64.064 28.48 64.064 63.904 0 35.392-28.672 64.064-64.064 64.064zM959.936 639.904h-767.936c-35.328 0-63.968-28.64-63.968-63.872 0-35.392 28.64-64.064 63.968-64.064h767.936c35.392 0 64.064 28.672 64.064 64.064 0 35.264-28.672 63.872-64.064 63.872z" />
<glyph unicode="&#xe84e;" glyph-name="align-justify" d="M959.936 127.968h-895.968c-35.328 0-63.968-28.64-63.968-63.904 0-35.392 28.64-64.032 63.968-64.032h895.968c35.328 0 64.064 28.64 64.064 64.032 0 35.264-28.736 63.904-64.064 63.904zM63.968 768.032h895.968c35.328 0 64.064 28.64 64.064 63.872 0 35.424-28.736 64.064-64.064 64.064h-895.968c-35.328 0-63.968-28.64-63.968-64.064 0-35.232 28.64-63.872 63.968-63.872zM959.936 639.904h-895.968c-35.328 0-63.968-28.608-63.968-63.872 0-35.392 28.64-64.064 63.968-64.064h895.968c35.328 0 64.064 28.672 64.064 64.064 0 35.264-28.736 63.872-64.064 63.872zM959.936 384.032h-895.968c-35.328 0-63.968-28.672-63.968-64.064 0-35.424 28.64-63.904 63.968-63.904h895.968c35.328 0 64.064 28.48 64.064 63.904 0 35.392-28.736 64.064-64.064 64.064z" />
<glyph unicode="&#xe84f;" glyph-name="text-bold" d="M846.112 386.816c-34.112 45.024-83.008 74.208-146.432 87.936 49.312 17.728 87.872 45.024 115.68 81.536 27.808 36.672 41.696 78.176 41.696 124.608 0 92.8-33.12 162.496-99.488 209.248-66.368 46.56-158.56 69.856-276.672 69.856h-354.272v-1024h401.824c115.136 0 205.44 24.992 270.88 74.88 65.312 49.92 98.048 122.88 98.048 219.168 0 59.456-17.12 111.776-51.264 156.768zM304.48 822.88h176.416c64.832 0 114.176-12.352 147.808-36.832 33.76-24.672 50.496-62.4 50.496-112.96 0-45.888-15.872-81.536-47.872-106.528-32-25.024-75.488-37.728-130.688-37.728h-196.16v294.048zM670.496 113.44c-33.184-26.944-80.576-40.352-142.080-40.352h-223.936v328.512h243.776c59.008 0 102.432-14.944 130.24-45.024 27.808-29.888 41.696-71.936 41.696-126.144 0-51.104-16.576-90.048-49.696-116.992z" />
<glyph unicode="&#xe850;" glyph-name="text-italic" d="M340.544-64h131.104l146.56 710.208h-130.944l-146.72-710.208zM552.384 960l-27.104-131.968h130.944l27.232 131.968h-131.072z" />
<glyph unicode="&#xe851;" glyph-name="text-underline" d="M830.272 64.192h-636.544c-36.48 0-66.016-28.8-66.016-64.096 0-35.424 29.536-64.096 66.016-64.096h636.576c36.48 0 66.016 28.672 66.016 64.096 0 35.264-29.568 64.096-66.048 64.096zM295.328 260.192c54.56-44.992 125.792-67.392 213.888-67.392 89.856 0 162.432 22.4 218.016 67.232 55.776 44.832 83.552 109.12 83.552 193.024v506.944h-128.384v-506.624c0-52.992-15.616-92.768-47.072-119.328-31.328-26.752-73.344-39.968-126.144-39.968-51.072 0-91.744 13.216-121.984 39.968-30.4 26.56-45.504 66.336-45.504 119.328v506.624h-128.352v-506.976c0-83.552 27.456-147.84 81.984-192.832z" />
<glyph unicode="&#xe852;" glyph-name="text-strikethtough" d="M957.728 533.344h-445.952c-16.544 4.544-32.096 8.96-46.464 13.184-30.528 9.024-55.872 19.104-76.32 30.528-20.128 11.296-35.392 24.8-45.472 40.448-10.4 15.616-15.264 35.552-15.264 60.224 0 44.416 15.616 78.944 46.848 103.552 31.584 24.672 77.728 36.768 138.816 36.768 32.256 0 62.464-3.296 91.264-9.888 28.48-6.592 54.848-15.104 78.080-25.504 23.584-10.432 44.064-21.536 61.76-33.312 17.696-11.808 30.88-22.912 40.256-33.312l70.432 130.464c-42.304 32.096-91.584 58.976-147.456 80.832-55.904 21.728-118.016 32.672-186.368 32.672-49.632 0-96.48-6.592-139.84-19.968-43.36-13.184-80.864-32.768-112.768-58.816s-56.576-58.112-74.624-96.48c-18.048-38.144-27.072-82.048-27.072-131.136 0-39.744 6.24-73.568 18.72-101.312 2.912-6.528 6.208-12.8 9.728-18.944h-129.76c-36.448 0-65.92-28.64-65.92-64 0-35.392 29.472-64.032 65.92-64.032h322.368c22.048-7.264 45.728-14.304 71.168-21.152 42.304-11.296 80.16-22.048 113.472-31.936s61.408-21.344 84.672-34.016c22.912-12.832 40.608-27.744 52.416-44.768 12.128-16.992 18.016-38.144 18.016-63.84 0-42.496-16.32-74.944-49.28-97.152-32.608-22.016-78.4-33.312-137.76-33.312-38.528 0-76 4.512-112.096 13.536-36.064 9.024-69.056 19.776-98.88 32.64-30.208 12.832-56.224 26.72-78.432 41.824s-39.2 28.768-51.008 41.12l-72.192-136.256c56.192-44.416 119.712-78.24 189.792-101.312 70.112-23.264 142.624-34.688 217.216-34.688 48.928 0 95.104 5.376 138.464 16.288 43.712 10.784 81.536 27.776 114.496 51.040 32.64 23.264 58.656 53.248 78.080 90.016 19.392 36.96 29.12 81.728 29.12 134.816 0 46.336-7.968 85.024-23.584 116.256-11.488 23.040-26.464 43.296-44.736 60.896h130.112c36.448 0 65.952 28.64 65.952 64.032 0 35.36-29.504 64-65.92 64z" />
<glyph unicode="&#xe853;" glyph-name="link" d="M457.568 271.328c7.648-28.8 0.544-60.704-22.016-83.296l-122.272-122.272c-33.824-33.824-88.64-33.824-122.464 0l-61.056 61.056c-33.824 33.824-33.824 88.672 0 122.272l122.304 122.496c22.56 22.528 54.464 29.664 83.264 22.016l69.728 69.76c-50.816 50.656-132.864 50.656-183.52 0l-183.52-183.52c-50.656-50.656-50.656-132.864 0-183.52l122.304-122.272c50.656-50.656 132.864-50.656 183.52 0l183.52 183.52c50.656 50.624 50.656 132.672 0 183.328l-69.792-69.568zM343.808 279.808c16.8-16.992 44.224-16.992 61.216 0l275.136 275.296c16.992 16.832 16.992 44.224 0 61.056-16.832 16.992-44.256 16.992-61.056 0l-275.296-275.296c-16.832-16.832-16.832-44.224 0-61.056zM985.984 799.712l-122.304 122.272c-50.656 50.656-132.864 50.656-183.52 0l-183.552-183.52c-50.656-50.656-50.656-132.704 0-183.36l69.728 69.568c-7.616 28.8-0.512 60.704 22.016 83.264l122.464 122.272c33.664 33.824 88.48 33.824 122.304 0l61.056-61.056c33.824-33.824 33.824-88.64 0-122.464l-122.304-122.304c-22.528-22.56-54.464-29.664-83.264-22.016l-69.568-69.728c50.656-50.656 132.672-50.656 183.328 0l183.52 183.52c50.816 50.656 50.816 132.896 0.096 183.552z" />
<glyph unicode="&#xe854;" glyph-name="clip" d="M936.576 808.608c-116.416 115.36-305.472 115.36-422.048 0l-452.096-447.584c-83.296-82.208-83.296-215.968 0-298.368 83.264-82.4 218.24-82.4 301.504 0l391.872 387.904c49.984 49.44 49.984 129.6 0 179.040s-130.976 49.44-180.928 0l-301.504-298.4c-16.64-16.48-16.64-43.2 0-59.648 16.672-16.512 43.712-16.512 60.384 0l301.504 298.368c16.672 16.48 43.52 16.48 60.192 0s16.672-43.2 0-59.68l-391.84-387.936c-49.952-49.248-130.976-49.248-180.928 0-49.952 49.472-49.952 129.6 0 179.232l120.032 118.496 332.224 328.928c83.296 82.4 218.208 82.4 301.504 0s83.296-216 0-298.4l-147.616-145.888-214.24-212.16c-16.672-16.512-16.672-43.040 0-59.52s43.712-16.48 60.352 0l361.696 357.92c116.512 115.328 116.512 302.336-0.064 417.696z" />
<glyph unicode="&#xe855;" glyph-name="twitter" d="M1024 773.984c-37.696-17.024-78.144-28.832-120.704-33.888 43.392 26.752 76.672 68.96 92.512 119.328-40.672-24.832-85.664-42.72-133.504-52.448-38.304 41.856-92.928 68.096-153.312 68.096-116.032 0-210.112-96.416-210.112-215.584 0-16.832 1.92-33.344 5.472-49.152-174.624 9.024-329.504 94.848-433.024 225.312-18.24-31.776-28.48-68.8-28.48-108.416 0-74.848 36.992-140.704 93.472-179.456-34.4 1.056-66.88 10.784-95.2 26.944 0-0.864 0-1.728 0-2.784 0-104.416 72.448-191.648 168.608-211.424-17.728-4.832-36.32-7.648-55.328-7.648-13.536 0-26.752 1.408-39.616 4 26.752-85.632 104.32-148.192 196.32-149.76-71.936-57.856-162.528-92.256-261.024-92.256-16.928 0-33.632 0.864-50.048 2.976 93.024-61.312 203.328-96.928 322.016-96.928 386.432 0 597.696 328.512 597.696 613.568 0 9.376-0.096 18.592-0.544 27.968 41.056 30.432 76.576 68.288 104.8 111.552z" />
<glyph unicode="&#xe856;" glyph-name="facebook" d="M699.872 788.192h110.752v165.056c-18.752 2.24-84.256 6.752-159.008 6.752-155.872 0-261.216-85.568-261.216-241.248v-135.36h-177.024v-178.944h177.024v-468.448h208.8v468.448h176.608l26.304 178.944h-202.912v116.256c0.032 52.608 15.936 88.544 100.672 88.544z" />
<glyph unicode="&#xe857;" glyph-name="google-plus" d="M621.6 959.968h-255.904c-33.952 0-70.304-4.16-109.216-12.32-39.136-9.728-76.992-30.24-113.344-61.824-52.96-53.632-79.424-113.536-79.424-179.68 0-54.656 18.752-102.592 56.16-143.552 35.584-44.256 87.584-66.656 155.648-67.52 12.928 0 26.56 0.864 41.152 2.624-2.432-7.136-5.024-14.752-7.808-23.104-3.2-8-4.864-17.888-4.864-29.696 0-19.808 4.256-36.8 12.672-50.88 7.2-14.4 15.456-28.128 24.672-40.768-29.856-0.864-67.36-4.832-112.512-11.808-45.664-8.352-89.152-24.832-130.624-49.856-36.896-23.072-62.336-50.016-76.384-80.576-14.528-30.496-21.824-58.336-21.824-83.136 0-51.072 22.304-94.944 66.816-131.552 44.256-39.264 111.2-59.36 200.768-60.256 107.008 1.696 188.96 28.64 245.728 80.672 54.688 50.368 82.080 108 82.080 173.248-0.768 45.888-10.752 83.008-29.952 111.488-20.32 27.936-44 53.44-70.912 76.704l-43.328 37.344c-6.24 6.624-12.768 14.24-19.36 23.104-7.808 9.216-11.808 20.672-11.808 34.72 0 14.4 3.904 27.072 11.456 38.016 6.528 10.592 13.536 19.968 21.184 28.288 13.28 12.16 25.888 24.128 37.76 35.936 10.656 11.808 20.736 24.832 30.304 38.72 19.424 28.992 29.504 67.36 30.272 115.456 0 26.208-2.848 49.312-8.416 68.896-6.88 19.808-14.656 36.8-23.52 51.232-9.28 15.296-18.656 28.288-28.288 38.72-10.048 10.048-19.104 17.696-27.072 22.912h78.816l79.072 48.448zM481.312 226.624c21.088-25.312 31.776-55.2 31.776-89.184 0-42.176-15.52-76.384-46.432-103.136-31.776-27.072-77.856-41.12-138.112-42.016-67.168 0.864-120.128 16.64-158.848 47.2-40.8 30.752-61.12 69.632-61.12 116.864 0 24.128 4.672 44.576 14.048 61.76 8.064 16.192 18.144 29.696 29.856 40.64 12.224 10.432 24.32 18.624 36.096 24.32 11.808 5.248 20.928 9.184 27.52 11.808 27.68 8.672 54.784 15.136 81.248 18.944 26.816 2.624 43.584 3.424 50.080 2.624 11.040 0 20.576-0.384 28.736-1.248 47.68-35.072 82.656-64.576 105.152-88.576zM439.744 622.304c-3.136-18.048-10.080-35.392-20.832-52.608-22.464-24.128-50.528-36.8-84.192-38.016-26.656 0-50.336 8.512-71.104 25.536-20.736 17.184-37.664 38.016-50.784 62.496-27.072 52.608-40.64 103.136-40.64 151.904-0.864 36.8 8.416 69.984 27.872 99.84 22.912 28.48 51.744 43.232 86.464 44.096 26.208-0.864 49.376-9.024 69.504-24.32 19.808-16.32 35.68-37.312 47.744-63.2 25.856-53.824 38.688-107.296 38.688-160.224 0.032-12.352-0.832-27.648-2.72-45.504zM886.144 540.864v144.288h-78.816v-144.256h-134.56v-82.464h134.56v-140.992h78.816v140.992h137.856v82.464h-137.856z" />
<glyph unicode="&#xe858;" glyph-name="pinterest" d="M537.824 959.968c-300.736 0-452.416-200.352-452.416-367.36 0-101.216 41.248-191.136 129.696-224.64 14.4-5.568 27.424-0.352 31.584 14.56 2.944 10.432 9.92 36.48 13.024 47.232 4.16 14.752 2.496 19.968-9.12 32.8-25.536 27.968-41.856 64.064-41.856 115.456 0 148.608 119.712 281.6 311.712 281.6 169.984 0 263.424-96.544 263.424-225.344 0-169.6-80.8-312.832-200.768-312.832-66.208 0-115.776 50.88-99.904 113.376 19.104 74.464 55.904 154.848 55.904 208.672 0 48.256-27.776 88.352-85.312 88.352-67.712 0-122.144-65.088-122.144-152.256 0-55.552 20.16-93.056 20.16-93.056s-69.28-272.768-81.344-320.48c-24.224-95.168-3.648-211.712-2.016-223.52 1.056-6.944 10.784-8.672 15.136-3.456 6.24 7.648 86.88 100.096 114.304 192.448 7.712 26.208 44.544 161.824 44.544 161.824 21.952-39.072 86.272-73.44 154.592-73.44 203.552 0 341.568 172.416 341.568 403.136 0 174.592-159.040 336.928-400.768 336.928z" />
<glyph unicode="&#xe859;" glyph-name="instagram" d="M863.904 960.032h-704c-88.384 0-159.904-71.52-159.904-159.904v-704.096c0-88.192 71.52-160.064 159.904-160.064h704c88.384 0 160.096 71.872 160.096 160.064v704.096c0 88.384-71.712 159.904-160.096 159.904zM512 618.72c94.272 0 170.656-76.416 170.656-170.688 0-94.24-76.384-170.656-170.656-170.656s-170.688 76.416-170.688 170.656c0 94.272 76.416 170.688 170.688 170.688zM896.032 127.968c0-35.072-28.672-63.872-64.064-63.872h-639.968c-35.392 0-64.064 28.8-64.064 63.872v405.504h99.328c-8.32-27.296-13.888-55.552-13.888-85.44 0-164.896 133.696-298.592 298.624-298.592s298.592 133.696 298.592 298.592c0 29.888-5.728 58.144-13.888 85.44h99.328v-405.504zM896.032 725.472c0-35.392-28.672-64.064-64.064-64.064h-42.72c-35.264 0-63.872 28.672-63.872 64.064v42.72c0 35.264 28.64 63.904 63.872 63.904h42.72c35.392 0 64.064-28.672 64.064-63.904v-42.72z" />
</font>
</defs>
</svg>
