<?xml version="1.0" encoding="utf-8"?>
<!-- Generator: Adobe Illustrator 16.0.0, SVG Export Plug-In . SVG Version: 6.00 Build 0)  -->
<!DOCTYPE svg PUBLIC "-//W3C//DTD SVG 1.1//EN" "http://www.w3.org/Graphics/SVG/1.1/DTD/svg11.dtd">
<svg version="1.1" id="Layer_1" xmlns="http://www.w3.org/2000/svg" xmlns:xlink="http://www.w3.org/1999/xlink" x="0px" y="0px"
	 width="32px" height="32px" viewBox="0 0 32 32" style="enable-background:new 0 0 32 32;" xml:space="preserve">
<path style="fill:#0082D5;" d="M32,26c0,3.313-2.687,6-6,6H6c-3.313,0-6-2.687-6-6V6c0-3.313,2.687-6,6-6h20c3.313,0,6,2.686,6,6V26
	z"/>
<g>
	<path style="fill:#FFFFFF;" d="M11.875,21.304c0.086-0.328,0.147-0.625,0.181-0.89c0.033-0.295-0.047-0.566-0.231-0.784
		c-0.171-0.202-0.38-0.337-0.619-0.401c-0.252-0.066-0.508-0.035-0.747,0.092c-0.253,0.136-0.42,0.388-0.495,0.753
		c-0.067,0.351-0.173,0.704-0.315,1.049c-0.139,0.335-0.323,0.641-0.547,0.909c-0.218,0.26-0.489,0.473-0.803,0.632
		c-0.309,0.156-0.681,0.235-1.107,0.235c-0.314,0-0.608-0.058-0.874-0.172c-0.263-0.112-0.492-0.28-0.683-0.498
		c-0.194-0.222-0.348-0.503-0.458-0.836c-0.112-0.34-0.169-0.74-0.169-1.19c0-0.525,0.048-1.025,0.143-1.487
		c0.094-0.46,0.22-0.867,0.373-1.211c0.146-0.329,0.313-0.589,0.497-0.772c0.152-0.152,0.294-0.226,0.434-0.226
		c0.132,0,0.231,0.026,0.293,0.078c0.086,0.072,0.152,0.156,0.201,0.256c0.055,0.114,0.095,0.234,0.118,0.357
		c0.024,0.132,0.051,0.25,0.079,0.351c-0.023,0.256,0.069,0.415,0.154,0.506c0.12,0.127,0.282,0.201,0.468,0.214
		c0.146,0.011,0.313-0.012,0.492-0.066c0.175-0.053,0.338-0.135,0.484-0.242c0.148-0.108,0.275-0.243,0.378-0.399
		c0.116-0.178,0.175-0.378,0.175-0.597c0-0.243-0.046-0.521-0.138-0.826c-0.093-0.311-0.244-0.605-0.448-0.876
		c-0.206-0.273-0.477-0.509-0.805-0.699c-0.34-0.197-0.752-0.297-1.225-0.297c-0.638,0-1.233,0.181-1.771,0.54
		c-0.521,0.347-0.972,0.806-1.342,1.365c-0.364,0.551-0.654,1.186-0.86,1.886c-0.206,0.7-0.31,1.422-0.31,2.146
		c0,0.791,0.126,1.499,0.374,2.104c0.249,0.607,0.588,1.126,1.008,1.542c0.421,0.416,0.91,0.735,1.456,0.948
		c0.542,0.212,1.107,0.319,1.683,0.319c0.625,0,1.191-0.081,1.684-0.241c0.491-0.16,0.929-0.374,1.302-0.637
		c0.372-0.262,0.693-0.565,0.953-0.902c0.253-0.328,0.467-0.668,0.634-1.012C11.658,21.982,11.787,21.639,11.875,21.304z"/>
	<path style="fill:#FFFFFF;" d="M20.299,9.984c0-0.51-0.078-0.98-0.233-1.398c-0.157-0.423-0.383-0.791-0.673-1.093
		c-0.291-0.304-0.652-0.543-1.073-0.71c-0.415-0.164-0.886-0.248-1.398-0.248c-0.585,0-1.176,0.095-1.755,0.283
		c-0.573,0.186-1.13,0.444-1.656,0.769c-0.525,0.324-1.02,0.71-1.47,1.148s-0.847,0.916-1.179,1.42
		c-0.334,0.508-0.601,1.05-0.791,1.612c-0.192,0.568-0.29,1.142-0.29,1.705c0,0.652,0.092,1.241,0.274,1.751
		c0.18,0.506,0.42,0.967,0.713,1.37c0.292,0.4,0.63,0.76,1.006,1.068c0.363,0.299,0.739,0.581,1.117,0.838
		c0.372,0.253,0.742,0.501,1.1,0.735c0.343,0.225,0.652,0.458,0.918,0.694c0.253,0.224,0.459,0.468,0.613,0.726
		c0.143,0.24,0.213,0.509,0.213,0.82c0,0.441-0.125,0.776-0.383,1.024c-0.261,0.252-0.593,0.374-1.015,0.374
		c-0.198,0-0.368-0.023-0.507-0.069c-0.149-0.048-0.273-0.101-0.369-0.157c-0.115-0.067-0.175-0.118-0.207-0.149
		c-0.037-0.037-0.066-0.065-0.087-0.087c-0.166-0.29-0.395-0.335-0.521-0.335c-0.164,0-0.326,0.07-0.496,0.216
		c-0.13,0.111-0.252,0.25-0.363,0.41c-0.108,0.158-0.199,0.331-0.271,0.515c-0.077,0.197-0.116,0.389-0.116,0.569
		c0,0.105,0.044,0.218,0.163,0.413c0.102,0.168,0.265,0.332,0.5,0.501c0.225,0.162,0.516,0.302,0.891,0.429
		c0.372,0.125,0.837,0.188,1.384,0.188s1.068-0.104,1.549-0.311c0.478-0.205,0.899-0.487,1.25-0.839s0.633-0.771,0.834-1.246
		c0.201-0.477,0.304-0.987,0.304-1.518c0-0.548-0.095-1.043-0.281-1.474c-0.183-0.42-0.428-0.808-0.729-1.151
		c-0.294-0.336-0.633-0.646-1.006-0.925c-0.36-0.268-0.732-0.531-1.108-0.782c-0.37-0.248-0.736-0.501-1.088-0.751
		c-0.34-0.242-0.646-0.508-0.913-0.793c-0.258-0.276-0.469-0.588-0.625-0.926c-0.151-0.327-0.228-0.706-0.228-1.128
		c0-0.405,0.072-0.8,0.212-1.172c0.145-0.383,0.339-0.744,0.576-1.073c0.24-0.333,0.521-0.643,0.835-0.92
		c0.317-0.279,0.649-0.52,0.987-0.715c0.337-0.195,0.676-0.348,1.007-0.456c0.322-0.105,0.621-0.158,0.888-0.158
		c0.388,0,0.657,0.084,0.798,0.25c0.153,0.181,0.23,0.443,0.23,0.779c0,0.35-0.108,0.72-0.323,1.101
		c-0.229,0.403-0.514,0.777-0.85,1.113c-0.336,0.336-0.699,0.616-1.079,0.832c-0.356,0.203-0.678,0.305-0.957,0.305
		c-0.078,0-0.145-0.007-0.201-0.021c-0.096-0.024-0.177-0.039-0.247-0.044c-0.014-0.001-0.027-0.001-0.04-0.001
		c-0.131,0-0.249,0.052-0.332,0.146c-0.104,0.119-0.117,0.278-0.117,0.403c0,0.166,0.039,0.349,0.116,0.545
		c0.074,0.19,0.179,0.373,0.312,0.542c0.139,0.177,0.312,0.327,0.516,0.445c0.217,0.126,0.463,0.19,0.731,0.19
		c0.286,0,0.613-0.076,0.974-0.226c0.345-0.143,0.704-0.344,1.065-0.598c0.357-0.251,0.712-0.551,1.053-0.892
		c0.342-0.342,0.652-0.72,0.924-1.123c0.274-0.407,0.498-0.846,0.665-1.305C20.213,10.954,20.299,10.47,20.299,9.984z"/>
	<path style="fill:#FFFFFF;" d="M30.164,8.586c-0.157-0.423-0.383-0.791-0.673-1.093c-0.291-0.304-0.652-0.543-1.073-0.71
		c-0.415-0.164-0.886-0.248-1.397-0.248c-0.586,0-1.176,0.095-1.756,0.283c-0.572,0.186-1.129,0.444-1.656,0.769
		c-0.524,0.324-1.019,0.71-1.469,1.148c-0.451,0.438-0.848,0.916-1.18,1.42c-0.335,0.508-0.601,1.05-0.79,1.612
		c-0.192,0.568-0.29,1.142-0.29,1.705c0,0.652,0.092,1.241,0.273,1.751c0.18,0.506,0.42,0.967,0.714,1.37
		c0.292,0.4,0.63,0.76,1.005,1.068c0.363,0.299,0.74,0.581,1.118,0.838c0.37,0.253,0.74,0.5,1.1,0.735
		c0.343,0.225,0.651,0.458,0.918,0.694c0.253,0.224,0.459,0.468,0.613,0.726c0.144,0.24,0.213,0.509,0.213,0.82
		c0,0.441-0.125,0.776-0.383,1.024c-0.261,0.252-0.593,0.374-1.016,0.374c-0.197,0-0.367-0.023-0.507-0.069
		c-0.149-0.048-0.272-0.101-0.369-0.157c-0.114-0.067-0.175-0.118-0.207-0.149c-0.037-0.037-0.065-0.065-0.086-0.087
		c-0.166-0.29-0.396-0.335-0.521-0.335c-0.164,0-0.327,0.07-0.496,0.216c-0.131,0.111-0.253,0.25-0.363,0.41
		c-0.107,0.158-0.199,0.331-0.271,0.515c-0.077,0.197-0.116,0.389-0.116,0.569c0,0.105,0.044,0.218,0.163,0.413
		c0.102,0.169,0.266,0.332,0.5,0.501c0.225,0.162,0.516,0.302,0.891,0.429c0.371,0.125,0.837,0.188,1.383,0.188
		c0.548,0,1.068-0.104,1.55-0.311c0.478-0.205,0.898-0.487,1.25-0.839c0.353-0.352,0.633-0.771,0.834-1.246
		c0.201-0.477,0.304-0.987,0.304-1.518c0-0.548-0.095-1.043-0.281-1.474c-0.183-0.42-0.428-0.808-0.729-1.151
		c-0.294-0.336-0.633-0.646-1.006-0.925c-0.359-0.268-0.732-0.53-1.107-0.782c-0.37-0.248-0.736-0.501-1.089-0.751
		c-0.34-0.242-0.646-0.508-0.913-0.793c-0.258-0.276-0.468-0.588-0.624-0.926c-0.151-0.327-0.229-0.706-0.229-1.128
		c0-0.405,0.071-0.8,0.213-1.172c0.145-0.383,0.338-0.744,0.575-1.073c0.239-0.333,0.521-0.643,0.836-0.92
		c0.316-0.279,0.648-0.52,0.986-0.715c0.338-0.195,0.677-0.348,1.008-0.456c0.321-0.105,0.62-0.158,0.889-0.158
		c0.388,0,0.656,0.084,0.798,0.25c0.153,0.181,0.23,0.443,0.23,0.779c0,0.35-0.108,0.72-0.323,1.101
		c-0.228,0.403-0.514,0.777-0.85,1.113c-0.336,0.336-0.699,0.616-1.078,0.832c-0.356,0.203-0.679,0.305-0.957,0.305
		c-0.078,0-0.146-0.007-0.2-0.021c-0.097-0.024-0.177-0.039-0.247-0.044c-0.014-0.001-0.026-0.001-0.04-0.001
		c-0.131,0-0.249,0.052-0.331,0.146c-0.104,0.119-0.117,0.278-0.117,0.403c0,0.166,0.039,0.349,0.115,0.545
		c0.074,0.19,0.18,0.373,0.313,0.542c0.138,0.177,0.312,0.327,0.516,0.445c0.217,0.126,0.462,0.19,0.73,0.19
		c0.285,0,0.613-0.076,0.975-0.226c0.345-0.143,0.703-0.344,1.064-0.598c0.357-0.251,0.712-0.551,1.053-0.892
		c0.342-0.342,0.652-0.72,0.925-1.123c0.273-0.407,0.497-0.846,0.664-1.305c0.171-0.468,0.257-0.952,0.257-1.438
		C30.397,9.474,30.319,9.004,30.164,8.586z"/>
</g>
</svg>
